<mxfile host="app.diagrams.net" modified="2023-06-01T00:45:26.111Z" agent="Mozilla/5.0 (Windows NT 10.0; Win64; x64) AppleWebKit/537.36 (KHTML, like Gecko) Chrome/113.0.0.0 Safari/537.36" etag="Zq_D865-M7LM6P0_w5Qo" version="21.3.6" type="device">
  <diagram name="페이지-1" id="_RhL96BJ7vGR9oLJ2-qq">
    <mxGraphModel dx="1687" dy="889" grid="1" gridSize="10" guides="1" tooltips="1" connect="1" arrows="1" fold="1" page="1" pageScale="1" pageWidth="4681" pageHeight="3300" math="0" shadow="0">
      <root>
        <mxCell id="0" />
        <mxCell id="1" parent="0" />
        <mxCell id="7ElB7VI4faT141ODffVQ-4" style="edgeStyle=orthogonalEdgeStyle;rounded=0;orthogonalLoop=1;jettySize=auto;html=1;entryX=0;entryY=0.5;entryDx=0;entryDy=0;" edge="1" parent="1" source="7ElB7VI4faT141ODffVQ-1" target="7ElB7VI4faT141ODffVQ-2">
          <mxGeometry relative="1" as="geometry" />
        </mxCell>
        <mxCell id="7ElB7VI4faT141ODffVQ-1" value="&lt;font style=&quot;font-size: 12px;&quot;&gt;user&lt;/font&gt;" style="shape=umlActor;verticalLabelPosition=bottom;verticalAlign=top;html=1;outlineConnect=0;" vertex="1" parent="1">
          <mxGeometry x="1040" y="950" width="60" height="110" as="geometry" />
        </mxCell>
        <mxCell id="7ElB7VI4faT141ODffVQ-8" style="rounded=0;orthogonalLoop=1;jettySize=auto;html=1;entryX=0.5;entryY=0;entryDx=0;entryDy=0;" edge="1" parent="1" source="7ElB7VI4faT141ODffVQ-2" target="7ElB7VI4faT141ODffVQ-7">
          <mxGeometry relative="1" as="geometry" />
        </mxCell>
        <mxCell id="7ElB7VI4faT141ODffVQ-9" style="rounded=0;orthogonalLoop=1;jettySize=auto;html=1;entryX=0.5;entryY=0;entryDx=0;entryDy=0;exitX=0.5;exitY=1;exitDx=0;exitDy=0;" edge="1" parent="1" source="7ElB7VI4faT141ODffVQ-2" target="7ElB7VI4faT141ODffVQ-5">
          <mxGeometry relative="1" as="geometry" />
        </mxCell>
        <mxCell id="7ElB7VI4faT141ODffVQ-10" style="rounded=0;orthogonalLoop=1;jettySize=auto;html=1;entryX=0.5;entryY=0;entryDx=0;entryDy=0;exitX=0.5;exitY=1;exitDx=0;exitDy=0;" edge="1" parent="1" source="7ElB7VI4faT141ODffVQ-2" target="7ElB7VI4faT141ODffVQ-6">
          <mxGeometry relative="1" as="geometry" />
        </mxCell>
        <mxCell id="7ElB7VI4faT141ODffVQ-19" style="edgeStyle=none;shape=connector;rounded=0;orthogonalLoop=1;jettySize=auto;html=1;entryX=0;entryY=0.5;entryDx=0;entryDy=0;labelBackgroundColor=default;strokeColor=default;fontFamily=Helvetica;fontSize=11;fontColor=default;endArrow=classic;" edge="1" parent="1" source="7ElB7VI4faT141ODffVQ-2" target="7ElB7VI4faT141ODffVQ-18">
          <mxGeometry relative="1" as="geometry" />
        </mxCell>
        <mxCell id="7ElB7VI4faT141ODffVQ-2" value="로그인하기" style="ellipse;whiteSpace=wrap;html=1;" vertex="1" parent="1">
          <mxGeometry x="1430" y="970" width="140" height="70" as="geometry" />
        </mxCell>
        <mxCell id="7ElB7VI4faT141ODffVQ-5" value="회원가입하기" style="ellipse;whiteSpace=wrap;html=1;" vertex="1" parent="1">
          <mxGeometry x="1300" y="1090" width="140" height="70" as="geometry" />
        </mxCell>
        <mxCell id="7ElB7VI4faT141ODffVQ-11" style="rounded=0;orthogonalLoop=1;jettySize=auto;html=1;entryX=0.5;entryY=0;entryDx=0;entryDy=0;exitX=0.5;exitY=1;exitDx=0;exitDy=0;" edge="1" parent="1" source="7ElB7VI4faT141ODffVQ-6" target="7ElB7VI4faT141ODffVQ-7">
          <mxGeometry relative="1" as="geometry" />
        </mxCell>
        <mxCell id="7ElB7VI4faT141ODffVQ-22" style="edgeStyle=orthogonalEdgeStyle;shape=connector;rounded=0;orthogonalLoop=1;jettySize=auto;html=1;entryX=0;entryY=0.5;entryDx=0;entryDy=0;labelBackgroundColor=default;strokeColor=default;fontFamily=Helvetica;fontSize=11;fontColor=default;endArrow=classic;" edge="1" parent="1" source="7ElB7VI4faT141ODffVQ-6" target="7ElB7VI4faT141ODffVQ-16">
          <mxGeometry relative="1" as="geometry" />
        </mxCell>
        <mxCell id="7ElB7VI4faT141ODffVQ-6" value="아이디찾기" style="ellipse;whiteSpace=wrap;html=1;" vertex="1" parent="1">
          <mxGeometry x="1560" y="1090" width="140" height="70" as="geometry" />
        </mxCell>
        <mxCell id="7ElB7VI4faT141ODffVQ-21" style="edgeStyle=orthogonalEdgeStyle;shape=connector;rounded=0;orthogonalLoop=1;jettySize=auto;html=1;entryX=0.5;entryY=1;entryDx=0;entryDy=0;labelBackgroundColor=default;strokeColor=default;fontFamily=Helvetica;fontSize=11;fontColor=default;endArrow=classic;" edge="1" parent="1" source="7ElB7VI4faT141ODffVQ-7" target="7ElB7VI4faT141ODffVQ-16">
          <mxGeometry relative="1" as="geometry" />
        </mxCell>
        <mxCell id="7ElB7VI4faT141ODffVQ-7" value="비밀번호찾기" style="ellipse;whiteSpace=wrap;html=1;" vertex="1" parent="1">
          <mxGeometry x="1430" y="1200" width="140" height="70" as="geometry" />
        </mxCell>
        <mxCell id="7ElB7VI4faT141ODffVQ-15" style="edgeStyle=none;shape=connector;rounded=0;orthogonalLoop=1;jettySize=auto;html=1;entryX=0;entryY=0.5;entryDx=0;entryDy=0;labelBackgroundColor=default;strokeColor=default;fontFamily=Helvetica;fontSize=11;fontColor=default;endArrow=classic;" edge="1" parent="1" source="7ElB7VI4faT141ODffVQ-12" target="7ElB7VI4faT141ODffVQ-14">
          <mxGeometry relative="1" as="geometry" />
        </mxCell>
        <mxCell id="7ElB7VI4faT141ODffVQ-12" value="유효성검사하기" style="ellipse;whiteSpace=wrap;html=1;" vertex="1" parent="1">
          <mxGeometry x="1300" y="1360" width="140" height="70" as="geometry" />
        </mxCell>
        <mxCell id="7ElB7VI4faT141ODffVQ-13" value="&lt;h1 style=&quot;&quot;&gt;유효성검사&lt;/h1&gt;&lt;div style=&quot;font-size: 14px;&quot;&gt;&lt;font style=&quot;font-size: 14px;&quot;&gt;이메일 중복검사&lt;/font&gt;&lt;/div&gt;&lt;div style=&quot;font-size: 14px;&quot;&gt;&lt;font style=&quot;font-size: 14px;&quot;&gt;이메일 형식검사&lt;/font&gt;&lt;/div&gt;&lt;div style=&quot;font-size: 14px;&quot;&gt;&lt;font style=&quot;font-size: 14px;&quot;&gt;비밀번호 적합성 검사&lt;/font&gt;&lt;/div&gt;" style="text;html=1;strokeColor=none;fillColor=none;spacing=5;spacingTop=-20;whiteSpace=wrap;overflow=hidden;rounded=0;fontSize=11;fontFamily=Helvetica;fontColor=default;" vertex="1" parent="1">
          <mxGeometry x="1300" y="1450" width="160" height="100" as="geometry" />
        </mxCell>
        <mxCell id="7ElB7VI4faT141ODffVQ-17" style="edgeStyle=orthogonalEdgeStyle;shape=connector;rounded=0;orthogonalLoop=1;jettySize=auto;html=1;entryX=0;entryY=0.5;entryDx=0;entryDy=0;labelBackgroundColor=default;strokeColor=default;fontFamily=Helvetica;fontSize=11;fontColor=default;endArrow=classic;" edge="1" parent="1" source="7ElB7VI4faT141ODffVQ-14" target="7ElB7VI4faT141ODffVQ-16">
          <mxGeometry relative="1" as="geometry" />
        </mxCell>
        <mxCell id="7ElB7VI4faT141ODffVQ-14" value="회원정보 저장하기" style="ellipse;whiteSpace=wrap;html=1;" vertex="1" parent="1">
          <mxGeometry x="1570" y="1360" width="140" height="70" as="geometry" />
        </mxCell>
        <mxCell id="7ElB7VI4faT141ODffVQ-16" value="회원정보 Table" style="shape=internalStorage;whiteSpace=wrap;html=1;backgroundOutline=1;fontFamily=Helvetica;fontSize=11;fontColor=default;" vertex="1" parent="1">
          <mxGeometry x="1980" y="1090" width="150" height="70" as="geometry" />
        </mxCell>
        <mxCell id="7ElB7VI4faT141ODffVQ-20" style="edgeStyle=orthogonalEdgeStyle;shape=connector;rounded=0;orthogonalLoop=1;jettySize=auto;html=1;entryX=0.5;entryY=0;entryDx=0;entryDy=0;labelBackgroundColor=default;strokeColor=default;fontFamily=Helvetica;fontSize=11;fontColor=default;endArrow=classic;" edge="1" parent="1" source="7ElB7VI4faT141ODffVQ-18" target="7ElB7VI4faT141ODffVQ-16">
          <mxGeometry relative="1" as="geometry" />
        </mxCell>
        <mxCell id="7ElB7VI4faT141ODffVQ-18" value="회원정보 조회&lt;br&gt;로그인 승인하기" style="ellipse;whiteSpace=wrap;html=1;" vertex="1" parent="1">
          <mxGeometry x="1670" y="970" width="140" height="70" as="geometry" />
        </mxCell>
      </root>
    </mxGraphModel>
  </diagram>
</mxfile>
